<svg xmlns="http://www.w3.org/2000/svg" viewBox="0 0 24 24"><path d="M22 21.8a1 1 0 0 1-1-1V11c0-4.962-4.037-9-9-9-4.962 0-9 4.038-9 9v9.8a1 1 0 1 1-2 0V11C1 4.935 5.935 0 12 0s11 4.935 11 11v9.8a1 1 0 0 1-1 1zm-11.461 1.638a.997.997 0 0 1-.677-.265 2.65 2.65 0 0 0-3.611 0 1 1 0 1 1-1.354-1.471 4.633 4.633 0 0 1 6.32 0 1 1 0 0 1-.678 1.736zm7.887 0a1 1 0 0 1-.678-.265 2.69 2.69 0 0 0-3.669 0 1 1 0 1 1-1.355-1.471 4.675 4.675 0 0 1 6.379 0 1 1 0 0 1-.677 1.736zM4.143 24C2.41 24 1 22.564 1 20.8a1 1 0 1 1 2 0c0 .662.513 1.2 1.143 1.2.277 0 .544-.105.753-.298a1 1 0 1 1 1.355 1.471A3.106 3.106 0 0 1 4.143 24zm15.714 0c-.78 0-1.529-.294-2.108-.827a.998.998 0 0 1-.059-1.412.997.997 0 0 1 1.412-.059c.149.136.4.298.755.298.63 0 1.143-.538 1.143-1.2a1 1 0 1 1 2 0c0 1.764-1.41 3.2-3.143 3.2zm-7.887 0c-.781 0-1.53-.294-2.109-.827a1 1 0 0 1 1.355-1.471 1.128 1.128 0 0 0 1.507 0 .998.998 0 0 1 1.413.059.997.997 0 0 1-.059 1.412A3.103 3.103 0 0 1 11.97 24zM8 14.5c-1.93 0-3.5-1.57-3.5-3.5S6.07 7.5 8 7.5s3.5 1.57 3.5 3.5-1.57 3.5-3.5 3.5zm0-5c-.827 0-1.5.673-1.5 1.5s.673 1.5 1.5 1.5 1.5-.673 1.5-1.5S8.827 9.5 8 9.5z"></path><circle cx="9" cy="11" r="1"></circle><path d="M16 14.5c-1.93 0-3.5-1.57-3.5-3.5s1.57-3.5 3.5-3.5 3.5 1.57 3.5 3.5-1.57 3.5-3.5 3.5zm0-5c-.827 0-1.5.673-1.5 1.5s.673 1.5 1.5 1.5 1.5-.673 1.5-1.5-.673-1.5-1.5-1.5z"></path><circle cx="17" cy="11" r="1"></circle></svg>