<svg xmlns="http://www.w3.org/2000/svg" viewBox="0 0 90 90"><path d="M83.1 22.3H64.6c.5-.4 1-.8 1.4-1.2 5-5 5.3-12.7.7-17.2C64.6 1.8 61.8.7 58.8.7c-3.4 0-6.8 1.4-9.3 3.9-1.3 1.3-2.8 3.5-4.2 6-1.3-2.6-2.9-4.8-4.2-6C38.6 2.1 35.2.7 31.8.7c-3 0-5.9 1.1-7.9 3.2-4.5 4.5-4.2 12.3.7 17.2.4.4.9.8 1.4 1.2H7.5c-1.6 0-3 1.3-3 3V47c0 1.6 1.3 3 3 3H8v35.9c0 1.6 1.3 3 3 3h68.7c1.6 0 3-1.3 3-3v-36h.5c1.6 0 3-1.3 3-3V25.3c-.1-1.6-1.5-3-3.1-3zM42.3 82.8H13.9V49.9h28.4v32.9zm0-38.8H10.4V28.3H42.3V44zm0-22.8c0 .4-.2.6-.3.8-.1.1-.6.3-1.4.3-3.6 0-9.4-3-11.9-5.4-2.6-2.6-3-6.6-.7-8.8.9-.9 2.3-1.5 3.7-1.5 1.8 0 3.7.8 5.1 2.2 2.9 2.9 5.2 8.4 5.5 11.4v1zm5.9-1c.3-3 2.6-8.5 5.5-11.4 1.4-1.4 3.3-2.2 5.1-2.2 1.5 0 2.8.5 3.7 1.5 2.2 2.2 1.9 6.2-.7 8.8-2.5 2.5-8.3 5.4-11.9 5.4-.8 0-1.2-.2-1.4-.3-.2-.2-.3-.5-.3-.8v-1zm28.5 62.6H48.3V49.9h28.4v32.9zM80.1 44H48.3V28.3h31.9V44z"></path></svg>